# xmcd CD database file
#
# Track frame offsets:
#	225
#	24229
#	37597
#	51718
#	66521
#	83433
#	98276
#	108264
#	125814
#	138933
#	150690
#	163577
#	182841
#	190776
#	214211
#	224306
#	235922
#
# Disc length: 3468 seconds
#
# Revision: 12
# Processed by: cddbd v1.5.2PL0 Copyright (c) Steve Scherf et al.
# Submitted via: CDex 1.70beta2
#
DISCID=e40d8911
DTITLE=Michal Tucny - Kosmickej vandr
DYEAR=1997
DGENRE=Country
TTITLE0=Kosmickej vandr
TTITLE1=Je to zvlastni
TTITLE2=Sundej z hodin zavazi
TTITLE3=Ja si jen tak litam
TTITLE4=Az prijde ten den
TTITLE5=Davej vinu dalkam
TTITLE6=Rovnou, tady rovnou
TTITLE7=Dlouha cerna limuzina
TTITLE8=Prodavac
TTITLE9=Modry mesic
TTITLE10=Ja svetem tah jen tak s celtou
TTITLE11=Muj kalendar¸
TTITLE12=Lodni zvon zvoni
TTITLE13=Len chciet (Vzdyt vis)
TTITLE14=Kocarem mym je vagon uhli
TTITLE15=Vanocni
TTITLE16=Kosmickej vandr - bonus
EXTD=YEAR: 1997
EXTT0=
EXTT1=
EXTT2=
EXTT3=
EXTT4=
EXTT5=
EXTT6=
EXTT7=
EXTT8=
EXTT9=
EXTT10=
EXTT11=
EXTT12=
EXTT13=
EXTT14=
EXTT15=
EXTT16=
PLAYORDER=
